<svg xmlns="http://www.w3.org/2000/svg" style="display:none" aria-hidden="true">
  <symbol id="ic-01-diagnostic" viewBox="0 0 24 24">
    <circle cx="11" cy="11" r="6"></circle><path d="M15.5 15.5 L20 20"></path><circle class="dot" cx="11" cy="11" r="1.4"></circle>
  </symbol>
  <symbol id="ic-02-pipeline" viewBox="0 0 24 24">
    <path d="M3 7 H17 a3 3 0 0 1 0 6 H7 a3 3 0 0 0 0 6 H21"></path><circle class="dot" cx="3" cy="7" r="1.6"></circle>
  </symbol>
  <symbol id="ic-03-signal" viewBox="0 0 24 24">
    <path d="M3 18 L9 12 L13 16 L21 6"></path><circle class="dot" cx="21" cy="6" r="1.6"></circle>
  </symbol>
  <symbol id="ic-04-cadence" viewBox="0 0 24 24">
    <circle cx="12" cy="12" r="9"></circle><path d="M12 6 V12 L17 14"></path>
  </symbol>
  <symbol id="ic-05-stack" viewBox="0 0 24 24">
    <path d="M3 7 L12 3 L21 7 L12 11 Z"></path><path d="M3 12 L12 16 L21 12"></path><path d="M3 17 L12 21 L21 17"></path>
  </symbol>
  <symbol id="ic-06-operator" viewBox="0 0 24 24">
    <circle cx="12" cy="9" r="4"></circle><path d="M4 21 a8 8 0 0 1 16 0"></path>
  </symbol>
  <symbol id="ic-07-approval" viewBox="0 0 24 24">
    <rect x="4" y="4" width="16" height="16"></rect><path d="M8 12 L11 15 L17 9"></path>
  </symbol>
  <symbol id="ic-08-decline" viewBox="0 0 24 24">
    <circle cx="12" cy="12" r="9"></circle><path d="M8 8 L16 16 M16 8 L8 16"></path>
  </symbol>
  <symbol id="ic-09-halt" viewBox="0 0 24 24">
    <rect x="5" y="5" width="14" height="14"></rect><path d="M9 12 H15"></path>
  </symbol>
  <symbol id="ic-10-external" viewBox="0 0 24 24">
    <path d="M14 4 L20 4 L20 10 M20 4 L11 13 M5 12 V19 H19 V14"></path>
  </symbol>
  <symbol id="ic-11-arrow" viewBox="0 0 24 24">
    <path d="M5 12 H19 M13 6 L19 12 L13 18"></path>
  </symbol>
  <symbol id="ic-12-confirm" viewBox="0 0 24 24">
    <circle cx="12" cy="12" r="9"></circle><path d="M9 12 L11 14 L15 10"></path><circle class="dot" cx="12" cy="12" r="1.2"></circle>
  </symbol>
  <symbol id="ic-13-memo" viewBox="0 0 24 24">
    <path d="M5 3 H15 L19 7 V21 H5 Z"></path><path d="M8 11 H16 M8 15 H16 M8 19 H13"></path>
  </symbol>
  <symbol id="ic-14-outreach" viewBox="0 0 24 24">
    <rect x="3" y="6" width="18" height="13"></rect><path d="M3 6 L12 14 L21 6"></path>
  </symbol>
  <symbol id="ic-15-field-note" viewBox="0 0 24 24">
    <path d="M6 4 H18 L20 6 V20 H4 V6 Z"></path><path d="M8 10 H16 M8 14 H16"></path><circle class="dot" cx="6" cy="4" r="1.4"></circle>
  </symbol>
  <symbol id="ic-16-archive" viewBox="0 0 24 24">
    <path d="M5 5 H10 V19 H5 Z M14 5 H19 V19 H14 Z"></path>
  </symbol>
  <symbol id="ic-17-type" viewBox="0 0 24 24">
    <path d="M4 9 L4 5 L20 5 L20 9 M12 5 V19 M8 19 H16"></path>
  </symbol>
  <symbol id="ic-18-contents" viewBox="0 0 24 24">
    <path d="M5 5 L19 5 M5 12 L19 12 M5 19 L13 19"></path>
  </symbol>
  <symbol id="ic-19-numbers" viewBox="0 0 24 24">
    <path d="M3 21 V11 H7 V21 Z M10 21 V5 H14 V21 Z M17 21 V15 H21 V21 Z"></path>
  </symbol>
  <symbol id="ic-20-share" viewBox="0 0 24 24">
    <circle cx="12" cy="12" r="9"></circle><path d="M12 12 L12 3 M12 12 L21 12"></path><circle class="dot" cx="12" cy="12" r="1.2"></circle>
  </symbol>
  <symbol id="ic-21-curve" viewBox="0 0 24 24">
    <path d="M3 17 Q9 17 12 11 T21 5"></path><path d="M3 21 H21"></path><circle class="dot" cx="21" cy="5" r="1.6"></circle>
  </symbol>
  <symbol id="ic-22-cohort" viewBox="0 0 24 24">
    <rect x="4" y="4" width="6" height="6"></rect><rect x="14" y="4" width="6" height="6"></rect><rect x="4" y="14" width="6" height="6"></rect><rect x="14" y="14" width="6" height="6"></rect>
  </symbol>
  <symbol id="ic-23-vital" viewBox="0 0 24 24">
    <path d="M3 12 H8 L10 6 L14 18 L16 12 H21"></path><circle class="dot" cx="14" cy="18" r="1.4"></circle>
  </symbol>
  <symbol id="ic-24-flag" viewBox="0 0 24 24">
    <path d="M4 20 L12 4 L20 20 Z"></path><path d="M12 11 V15"></path><circle class="fill" cx="12" cy="17.5" r="0.8"></circle>
  </symbol>
</svg>